<mxfile host="app.diagrams.net" modified="2023-01-31T13:05:05.472Z" agent="5.0 (Windows NT 10.0; Win64; x64) AppleWebKit/537.36 (KHTML, like Gecko) Chrome/109.0.0.0 Safari/537.36" etag="8Vbt4jAkGH-sKzWmNiij" version="20.8.13" type="github">
  <diagram name="Page-1" id="lc_NKJXXHf_QDUcvRoFB">
    <mxGraphModel dx="1035" dy="524" grid="0" gridSize="10" guides="1" tooltips="1" connect="1" arrows="1" fold="1" page="0" pageScale="1" pageWidth="850" pageHeight="1100" math="0" shadow="0">
      <root>
        <mxCell id="0" />
        <mxCell id="1" parent="0" />
        <mxCell id="XdMVC6tVJdjMFdPlncPM-6" value="" style="edgeStyle=none;curved=1;rounded=0;orthogonalLoop=1;jettySize=auto;html=1;fontSize=12;startSize=8;endSize=8;" parent="1" source="XdMVC6tVJdjMFdPlncPM-1" target="XdMVC6tVJdjMFdPlncPM-2" edge="1">
          <mxGeometry relative="1" as="geometry" />
        </mxCell>
        <mxCell id="XdMVC6tVJdjMFdPlncPM-17" value="Coin&lt;br&gt;accepted" style="edgeLabel;html=1;align=center;verticalAlign=middle;resizable=0;points=[];fontSize=16;" parent="XdMVC6tVJdjMFdPlncPM-6" vertex="1" connectable="0">
          <mxGeometry x="-0.4308" y="-1" relative="1" as="geometry">
            <mxPoint x="-1" y="9" as="offset" />
          </mxGeometry>
        </mxCell>
        <mxCell id="XdMVC6tVJdjMFdPlncPM-7" style="edgeStyle=none;curved=1;rounded=0;orthogonalLoop=1;jettySize=auto;html=1;exitX=1;exitY=1;exitDx=0;exitDy=0;entryX=1;entryY=0;entryDx=0;entryDy=0;fontSize=12;startSize=8;endSize=8;" parent="1" source="XdMVC6tVJdjMFdPlncPM-1" target="XdMVC6tVJdjMFdPlncPM-5" edge="1">
          <mxGeometry relative="1" as="geometry">
            <Array as="points">
              <mxPoint x="270" y="186" />
            </Array>
          </mxGeometry>
        </mxCell>
        <mxCell id="XdMVC6tVJdjMFdPlncPM-16" value="Coin is &lt;br&gt;invalid" style="edgeLabel;html=1;align=center;verticalAlign=middle;resizable=0;points=[];fontSize=16;" parent="XdMVC6tVJdjMFdPlncPM-7" vertex="1" connectable="0">
          <mxGeometry x="-0.454" y="-11" relative="1" as="geometry">
            <mxPoint as="offset" />
          </mxGeometry>
        </mxCell>
        <mxCell id="XdMVC6tVJdjMFdPlncPM-1" value="Coin Slot&lt;br&gt;______&lt;br&gt;0" style="ellipse;whiteSpace=wrap;html=1;aspect=fixed;fontSize=16;" parent="1" vertex="1">
          <mxGeometry x="127" y="9" width="80" height="80" as="geometry" />
        </mxCell>
        <mxCell id="XdMVC6tVJdjMFdPlncPM-8" style="edgeStyle=none;curved=1;rounded=0;orthogonalLoop=1;jettySize=auto;html=1;exitX=1;exitY=0.5;exitDx=0;exitDy=0;entryX=0.5;entryY=0;entryDx=0;entryDy=0;fontSize=12;startSize=8;endSize=8;" parent="1" source="XdMVC6tVJdjMFdPlncPM-2" target="XdMVC6tVJdjMFdPlncPM-4" edge="1">
          <mxGeometry relative="1" as="geometry">
            <Array as="points">
              <mxPoint x="304" y="217" />
            </Array>
          </mxGeometry>
        </mxCell>
        <mxCell id="XdMVC6tVJdjMFdPlncPM-19" value="Snack &lt;br&gt;Chosen" style="edgeLabel;html=1;align=center;verticalAlign=middle;resizable=0;points=[];fontSize=16;" parent="XdMVC6tVJdjMFdPlncPM-8" vertex="1" connectable="0">
          <mxGeometry x="-0.5845" y="-1" relative="1" as="geometry">
            <mxPoint x="43" y="34" as="offset" />
          </mxGeometry>
        </mxCell>
        <mxCell id="XdMVC6tVJdjMFdPlncPM-9" value="" style="edgeStyle=none;curved=1;rounded=0;orthogonalLoop=1;jettySize=auto;html=1;fontSize=12;startSize=8;endSize=8;" parent="1" source="XdMVC6tVJdjMFdPlncPM-2" target="XdMVC6tVJdjMFdPlncPM-5" edge="1">
          <mxGeometry relative="1" as="geometry" />
        </mxCell>
        <mxCell id="XdMVC6tVJdjMFdPlncPM-18" value="Coin&lt;br&gt;redeemed" style="edgeLabel;html=1;align=center;verticalAlign=middle;resizable=0;points=[];fontSize=16;" parent="XdMVC6tVJdjMFdPlncPM-9" vertex="1" connectable="0">
          <mxGeometry x="-0.3026" y="-2" relative="1" as="geometry">
            <mxPoint x="-1" y="6" as="offset" />
          </mxGeometry>
        </mxCell>
        <mxCell id="XdMVC6tVJdjMFdPlncPM-2" value="Button&lt;br&gt;______&lt;br style=&quot;border-color: var(--border-color);&quot;&gt;0" style="ellipse;whiteSpace=wrap;html=1;aspect=fixed;fontSize=16;" parent="1" vertex="1">
          <mxGeometry x="127" y="188.18" width="80" height="80" as="geometry" />
        </mxCell>
        <mxCell id="XdMVC6tVJdjMFdPlncPM-22" value="" style="edgeStyle=none;curved=1;rounded=0;orthogonalLoop=1;jettySize=auto;html=1;fontSize=12;startSize=8;endSize=8;" parent="1" source="XdMVC6tVJdjMFdPlncPM-4" target="XdMVC6tVJdjMFdPlncPM-5" edge="1">
          <mxGeometry relative="1" as="geometry" />
        </mxCell>
        <mxCell id="XdMVC6tVJdjMFdPlncPM-23" value="No &lt;br&gt;Snack &lt;br&gt;chosen" style="edgeLabel;html=1;align=center;verticalAlign=middle;resizable=0;points=[];fontSize=16;" parent="XdMVC6tVJdjMFdPlncPM-22" vertex="1" connectable="0">
          <mxGeometry x="0.2343" y="1" relative="1" as="geometry">
            <mxPoint x="11" y="-1" as="offset" />
          </mxGeometry>
        </mxCell>
        <mxCell id="XdMVC6tVJdjMFdPlncPM-4" value="Snack&lt;br&gt;______&lt;br style=&quot;border-color: var(--border-color);&quot;&gt;1" style="ellipse;whiteSpace=wrap;html=1;aspect=fixed;fontSize=16;" parent="1" vertex="1">
          <mxGeometry x="346.88" y="381" width="80" height="80" as="geometry" />
        </mxCell>
        <mxCell id="XdMVC6tVJdjMFdPlncPM-11" style="edgeStyle=none;curved=1;rounded=0;orthogonalLoop=1;jettySize=auto;html=1;exitX=0;exitY=0;exitDx=0;exitDy=0;entryX=0;entryY=1;entryDx=0;entryDy=0;fontSize=12;startSize=8;endSize=8;" parent="1" source="XdMVC6tVJdjMFdPlncPM-5" target="XdMVC6tVJdjMFdPlncPM-1" edge="1">
          <mxGeometry relative="1" as="geometry">
            <Array as="points">
              <mxPoint x="72" y="185" />
            </Array>
          </mxGeometry>
        </mxCell>
        <mxCell id="XdMVC6tVJdjMFdPlncPM-25" value="Coin slot &lt;br&gt;emptied" style="edgeLabel;html=1;align=center;verticalAlign=middle;resizable=0;points=[];fontSize=16;" parent="XdMVC6tVJdjMFdPlncPM-11" vertex="1" connectable="0">
          <mxGeometry x="0.1952" y="-29" relative="1" as="geometry">
            <mxPoint x="-24" y="-2" as="offset" />
          </mxGeometry>
        </mxCell>
        <mxCell id="XdMVC6tVJdjMFdPlncPM-5" value="Coin return&lt;br&gt;______&lt;br style=&quot;border-color: var(--border-color);&quot;&gt;0" style="ellipse;whiteSpace=wrap;html=1;aspect=fixed;fontSize=16;" parent="1" vertex="1">
          <mxGeometry x="127" y="386" width="80" height="80" as="geometry" />
        </mxCell>
        <mxCell id="XdMVC6tVJdjMFdPlncPM-12" style="edgeStyle=none;curved=1;rounded=0;orthogonalLoop=1;jettySize=auto;html=1;exitX=1;exitY=1;exitDx=0;exitDy=0;entryX=0;entryY=1;entryDx=0;entryDy=0;fontSize=12;startSize=8;endSize=8;" parent="1" source="XdMVC6tVJdjMFdPlncPM-5" target="XdMVC6tVJdjMFdPlncPM-5" edge="1">
          <mxGeometry relative="1" as="geometry">
            <Array as="points">
              <mxPoint x="195" y="476" />
              <mxPoint x="167" y="495" />
              <mxPoint x="133" y="476" />
            </Array>
          </mxGeometry>
        </mxCell>
        <mxCell id="XdMVC6tVJdjMFdPlncPM-24" value="Coin is returned" style="edgeLabel;html=1;align=center;verticalAlign=middle;resizable=0;points=[];fontSize=16;" parent="XdMVC6tVJdjMFdPlncPM-12" vertex="1" connectable="0">
          <mxGeometry x="-0.1627" y="-6" relative="1" as="geometry">
            <mxPoint as="offset" />
          </mxGeometry>
        </mxCell>
        <mxCell id="XdMVC6tVJdjMFdPlncPM-14" style="edgeStyle=none;curved=1;rounded=0;orthogonalLoop=1;jettySize=auto;html=1;exitX=1;exitY=1;exitDx=0;exitDy=0;entryX=0;entryY=1;entryDx=0;entryDy=0;fontSize=12;startSize=8;endSize=8;" parent="1" source="XdMVC6tVJdjMFdPlncPM-4" target="XdMVC6tVJdjMFdPlncPM-4" edge="1">
          <mxGeometry relative="1" as="geometry">
            <Array as="points">
              <mxPoint x="419.88" y="476" />
              <mxPoint x="386.88" y="490" />
              <mxPoint x="350.88" y="476" />
            </Array>
          </mxGeometry>
        </mxCell>
        <mxCell id="XdMVC6tVJdjMFdPlncPM-20" value="Snack is outputted" style="edgeLabel;html=1;align=center;verticalAlign=middle;resizable=0;points=[];fontSize=16;" parent="XdMVC6tVJdjMFdPlncPM-14" vertex="1" connectable="0">
          <mxGeometry x="0.1595" y="1" relative="1" as="geometry">
            <mxPoint x="11" as="offset" />
          </mxGeometry>
        </mxCell>
      </root>
    </mxGraphModel>
  </diagram>
</mxfile>
